<svg width="68" height="32" viewBox="0 0 68 32" fill="none" xmlns="http://www.w3.org/2000/svg">
<rect width="67.28" height="32" rx="12" fill="#6F2037"/>
<path d="M16.5332 12.4205V11.2695H23.308V12.4205H20.5949V20H19.2559V12.4205H16.5332ZM26.5211 20.1364C25.9062 20.1364 25.3697 19.9956 24.9116 19.714C24.4534 19.4324 24.0978 19.0379 23.8446 18.5304C23.5914 18.0229 23.4648 17.4333 23.4648 16.7614C23.4648 16.0799 23.5914 15.4846 23.8446 14.9756C24.0978 14.4665 24.4534 14.0712 24.9116 13.7896C25.3697 13.508 25.9062 13.3672 26.5211 13.3672C27.1391 13.3672 27.6777 13.508 28.1368 13.7896C28.5958 14.0712 28.9519 14.4665 29.2051 14.9756C29.4583 15.4846 29.5848 16.0799 29.5848 16.7614C29.5848 17.4333 29.4583 18.0229 29.2051 18.5304C28.9519 19.0379 28.5958 19.4324 28.1368 19.714C27.6777 19.9956 27.1391 20.1364 26.5211 20.1364ZM26.5211 19.0465C26.9196 19.0465 27.249 18.942 27.5092 18.733C27.7694 18.524 27.9625 18.2462 28.0887 17.8995C28.2149 17.5529 28.278 17.1728 28.278 16.7593C28.278 16.3419 28.2149 15.9588 28.0887 15.61C27.9625 15.2612 27.7694 14.9819 27.5092 14.772C27.249 14.5621 26.9196 14.4571 26.5211 14.4571C26.1251 14.4571 25.7984 14.5621 25.541 14.772C25.2837 14.9819 25.0919 15.2604 24.9658 15.6076C24.8396 15.9548 24.7765 16.3387 24.7765 16.7593C24.7765 17.1728 24.8396 17.5529 24.9658 17.8995C25.0919 18.2462 25.2837 18.524 25.541 18.733C25.7984 18.942 26.1251 19.0465 26.5211 19.0465ZM33.4496 20.1301C32.9207 20.1301 32.4495 19.9944 32.0361 19.723C31.6227 19.4517 31.2988 19.0631 31.0645 18.5574C30.8301 18.0517 30.7129 17.4459 30.7129 16.7401C30.7129 16.0304 30.8319 15.4237 31.07 14.9199C31.3081 14.4162 31.6337 14.0314 32.0467 13.7657C32.4598 13.5 32.9276 13.3672 33.4502 13.3672C33.8577 13.3672 34.1859 13.4349 34.4348 13.5702C34.6838 13.7056 34.8784 13.863 35.0188 14.0425C35.1592 14.222 35.2656 14.3798 35.3381 14.516H35.4116V11.2695H36.7005V20H35.4447V18.9747H35.3381C35.2642 19.1141 35.1553 19.2739 35.0114 19.4541C34.8674 19.6344 34.6707 19.7921 34.4212 19.9273C34.1717 20.0625 33.8479 20.1301 33.4496 20.1301ZM33.7354 19.0317C34.1008 19.0317 34.4096 18.9346 34.662 18.7404C34.9143 18.5461 35.1057 18.2761 35.2362 17.9304C35.3666 17.5846 35.4318 17.1846 35.4318 16.7305C35.4318 16.2749 35.3674 15.8781 35.2386 15.54C35.1097 15.2018 34.9191 14.9382 34.6668 14.7492C34.4145 14.5601 34.104 14.4656 33.7354 14.4656C33.3572 14.4656 33.0415 14.5649 32.7882 14.7636C32.535 14.9623 32.3451 15.2323 32.2186 15.5736C32.092 15.9149 32.0288 16.3005 32.0288 16.7305C32.0288 17.1629 32.0928 17.553 32.221 17.9007C32.3491 18.2484 32.5406 18.5239 32.7954 18.727C33.0503 18.9301 33.3636 19.0317 33.7354 19.0317ZM41.1871 20.1364C40.5723 20.1364 40.0358 19.9956 39.5776 19.714C39.1194 19.4324 38.7638 19.0379 38.5106 18.5304C38.2574 18.0229 38.1309 17.4333 38.1309 16.7614C38.1309 16.0799 38.2574 15.4846 38.5106 14.9756C38.7638 14.4665 39.1194 14.0712 39.5776 13.7896C40.0358 13.508 40.5723 13.3672 41.1871 13.3672C41.8052 13.3672 42.3437 13.508 42.8028 13.7896C43.2618 14.0712 43.6179 14.4665 43.8711 14.9756C44.1243 15.4846 44.2509 16.0799 44.2509 16.7614C44.2509 17.4333 44.1243 18.0229 43.8711 18.5304C43.6179 19.0379 43.2618 19.4324 42.8028 19.714C42.3437 19.9956 41.8052 20.1364 41.1871 20.1364ZM41.1871 19.0465C41.5856 19.0465 41.915 18.942 42.1752 18.733C42.4354 18.524 42.6286 18.2462 42.7547 17.8995C42.8809 17.5529 42.944 17.1728 42.944 16.7593C42.944 16.3419 42.8809 15.9588 42.7547 15.61C42.6286 15.2612 42.4354 14.9819 42.1752 14.772C41.915 14.5621 41.5856 14.4571 41.1871 14.4571C40.7911 14.4571 40.4644 14.5621 40.2071 14.772C39.9497 14.9819 39.758 15.2604 39.6318 15.6076C39.5056 15.9548 39.4425 16.3387 39.4425 16.7593C39.4425 17.1728 39.5056 17.5529 39.6318 17.8995C39.758 18.2462 39.9497 18.524 40.2071 18.733C40.4644 18.942 40.7911 19.0465 41.1871 19.0465ZM48.0326 20.1364C47.5574 20.1364 47.1355 20.0676 46.7669 19.9301C46.3983 19.7926 46.0956 19.5901 45.8588 19.3228C45.6221 19.0555 45.465 18.7295 45.3876 18.3446L46.6015 18.0907C46.6925 18.4318 46.8602 18.6837 47.1049 18.8464C47.3495 19.009 47.6619 19.0904 48.042 19.0904C48.4582 19.0904 48.7893 19.004 49.0351 18.8312C49.2809 18.6584 49.4038 18.4495 49.4038 18.2046C49.4038 17.9963 49.3281 17.8238 49.1765 17.6871C49.025 17.5504 48.7931 17.4475 48.4809 17.3782L47.3784 17.1288C46.772 16.9917 46.3204 16.7732 46.0236 16.4734C45.7268 16.1735 45.5784 15.7882 45.5784 15.3174C45.5784 14.9277 45.6868 14.5866 45.9037 14.2942C46.1206 14.0018 46.4195 13.7742 46.8002 13.6114C47.1809 13.4486 47.618 13.3672 48.1117 13.3672C48.5841 13.3672 48.9883 13.436 49.3242 13.5736C49.6601 13.7111 49.9326 13.9021 50.1419 14.1465C50.3511 14.391 50.5017 14.6755 50.5937 15.0003L49.4372 15.2559C49.3544 15.025 49.2119 14.8222 49.0096 14.6473C48.8072 14.4724 48.5124 14.385 48.125 14.385C47.7681 14.385 47.4705 14.4651 47.2322 14.6255C46.9938 14.7858 46.8747 14.9904 46.8747 15.2393C46.8747 15.4554 46.9543 15.6313 47.1136 15.7669C47.2728 15.9025 47.5316 16.011 47.8898 16.0924L48.9422 16.3268C49.5493 16.4632 49.9995 16.6783 50.2927 16.9722C50.586 17.266 50.7326 17.6407 50.7326 18.0963C50.7326 18.4946 50.6186 18.847 50.3905 19.1536C50.1625 19.4601 49.8455 19.7006 49.4396 19.8749C49.0337 20.0492 48.5647 20.1364 48.0326 20.1364Z" fill="white"/>
</svg>
