<svg width="98" height="32" viewBox="0 0 98 32" fill="none" xmlns="http://www.w3.org/2000/svg">
<rect width="97.69" height="32" rx="12" fill="#E8E8EA"/>
<path d="M16.9752 20V11.2695H20.1934C20.8126 11.2695 21.3255 11.3714 21.7322 11.5751C22.1389 11.7788 22.4422 12.0534 22.6423 12.3988C22.8423 12.7441 22.9423 13.1311 22.9423 13.5597C22.9423 13.9249 22.8752 14.2315 22.741 14.4795C22.6068 14.7275 22.4281 14.9267 22.205 15.0772C21.9819 15.2278 21.7356 15.3378 21.4662 15.4074V15.4916C21.758 15.5065 22.0427 15.6001 22.3205 15.7723C22.5984 15.9445 22.8281 16.1879 23.0097 16.5026C23.1914 16.8172 23.2822 17.1989 23.2822 17.6475C23.2822 18.092 23.1776 18.492 22.9683 18.8474C22.759 19.2028 22.4371 19.4838 22.0025 19.6903C21.5679 19.8968 21.0118 20 20.3341 20H16.9752ZM18.3141 18.8532H20.1962C20.8245 18.8532 21.2745 18.7322 21.5462 18.4902C21.8178 18.2481 21.9536 17.9457 21.9536 17.583C21.9536 17.3055 21.8843 17.053 21.7457 16.8256C21.6072 16.5981 21.4109 16.4168 21.157 16.2818C20.9031 16.1467 20.6009 16.0791 20.2505 16.0791H18.3141V18.8532ZM18.3141 15.0467H20.0652C20.3587 15.0467 20.6238 14.9905 20.8605 14.878C21.0971 14.7655 21.2844 14.6061 21.4223 14.3997C21.5602 14.1934 21.6291 13.9507 21.6291 13.6718C21.6291 13.3132 21.5036 13.0137 21.2526 12.773C21.0016 12.5324 20.6175 12.4121 20.1003 12.4121H18.3141V15.0467ZM24.7566 20V13.4492H26.004V14.5013H26.0743C26.1947 14.1454 26.4056 13.8658 26.707 13.6625C27.0084 13.4592 27.3505 13.3576 27.7334 13.3576C27.8158 13.3576 27.9101 13.3606 28.0165 13.3666C28.1229 13.3726 28.2101 13.38 28.2782 13.3889V14.6192C28.2315 14.6051 28.1416 14.59 28.0085 14.574C27.8754 14.5581 27.7403 14.5501 27.6032 14.5501C27.3055 14.5501 27.0384 14.613 26.802 14.739C26.5655 14.8649 26.3803 15.0383 26.2464 15.2591C26.1124 15.4798 26.0455 15.7344 26.0455 16.0229V20H24.7566ZM29.491 20V13.4492H30.7798V20H29.491ZM30.1392 12.4497C29.9182 12.4497 29.728 12.3747 29.5687 12.2246C29.4094 12.0744 29.3298 11.8943 29.3298 11.6841C29.3298 11.4697 29.4094 11.2884 29.5687 11.1403C29.728 10.9922 29.9182 10.9181 30.1392 10.9181C30.3632 10.9181 30.5549 10.9921 30.7143 11.1402C30.8737 11.2882 30.9534 11.4695 30.9534 11.6841C30.9534 11.8944 30.8737 12.0745 30.7143 12.2246C30.5549 12.3747 30.3632 12.4497 30.1392 12.4497ZM33.8033 16.1185V20H32.5145V13.4492H33.7433L33.7565 15.0529H33.6237C33.8138 14.4671 34.0903 14.0397 34.4531 13.7707C34.8159 13.5017 35.2548 13.3672 35.7699 13.3672C36.2155 13.3672 36.6052 13.4606 36.939 13.6476C37.2728 13.8345 37.5327 14.1111 37.7186 14.4774C37.9045 14.8437 37.9974 15.2971 37.9974 15.8377V20H36.7086V15.9984C36.7086 15.5268 36.5857 15.1574 36.34 14.8902C36.0942 14.623 35.7573 14.4894 35.3291 14.4894C35.0384 14.4894 34.7777 14.553 34.547 14.6802C34.3163 14.8074 34.1347 14.9922 34.0021 15.2346C33.8696 15.477 33.8033 15.7716 33.8033 16.1185ZM45.4191 22.4492H44.1303V18.9747H44.0567C43.9829 19.1141 43.874 19.2739 43.7301 19.4541C43.5861 19.6344 43.3894 19.7921 43.1399 19.9273C42.8904 20.0625 42.5665 20.1301 42.1682 20.1301C41.6393 20.1301 41.1682 19.9944 40.7548 19.723C40.3414 19.4517 40.0175 19.0631 39.7831 18.5574C39.5488 18.0517 39.4316 17.4459 39.4316 16.7401C39.4316 16.0304 39.5506 15.4237 39.7887 14.9199C40.0268 14.4162 40.3523 14.0314 40.7654 13.7657C41.1784 13.5 41.6463 13.3672 42.1688 13.3672C42.5763 13.3672 42.9046 13.4349 43.1535 13.5702C43.4024 13.7056 43.5971 13.863 43.7375 14.0425C43.8779 14.222 43.9843 14.3798 44.0567 14.516H44.1634V13.4492H45.4191V22.4492ZM42.4541 19.0317C42.8195 19.0317 43.1283 18.9346 43.3807 18.7404C43.633 18.5461 43.8244 18.2761 43.9548 17.9304C44.0853 17.5846 44.1505 17.1846 44.1505 16.7305C44.1505 16.2749 44.0861 15.8781 43.9572 15.54C43.8284 15.2018 43.6378 14.9382 43.3855 14.7492C43.1331 14.5601 42.8227 14.4656 42.4541 14.4656C42.0759 14.4656 41.7601 14.5649 41.5069 14.7636C41.2536 14.9623 41.0638 15.2323 40.9372 15.5736C40.8107 15.9149 40.7475 16.3005 40.7475 16.7305C40.7475 17.1629 40.8115 17.553 40.9396 17.9007C41.0678 18.2484 41.2593 18.5239 41.5141 18.727C41.7689 18.9301 42.0823 19.0317 42.4541 19.0317ZM49.3835 20.082C48.9386 20.082 48.5482 19.9886 48.2125 19.8017C47.8767 19.6147 47.6159 19.3373 47.43 18.9695C47.2441 18.6016 47.1512 18.1489 47.1512 17.6115V13.4492H48.44V17.4508C48.44 17.9224 48.5637 18.2918 48.811 18.559C49.0584 18.8262 49.3961 18.9599 49.8243 18.9599C50.1157 18.9599 50.3758 18.8962 50.6045 18.769C50.8332 18.6418 51.0139 18.456 51.1464 18.2117C51.279 17.9673 51.3453 17.6737 51.3453 17.3307V13.4492H52.6389V20H51.4053L51.3969 18.3963H51.5248C51.3316 18.9885 51.0519 19.4175 50.6859 19.6833C50.3199 19.9491 49.8857 20.082 49.3835 20.082ZM57.1934 20.1364C56.5487 20.1364 55.9926 19.997 55.5252 19.7182C55.0577 19.4394 54.6981 19.0481 54.4462 18.5442C54.1942 18.0403 54.0683 17.4492 54.0683 16.771C54.0683 16.0984 54.192 15.5068 54.4395 14.9962C54.6869 14.4855 55.0371 14.0863 55.4899 13.7987C55.9428 13.511 56.4735 13.3672 57.082 13.3672C57.4564 13.3672 57.8181 13.4283 58.1673 13.5506C58.5164 13.6729 58.8295 13.8651 59.1067 14.1273C59.3838 14.3895 59.6034 14.7292 59.7653 15.1464C59.9273 15.5637 60.0083 16.0677 60.0083 16.6584V17.1158H54.7852V16.1534H59.3439L58.7421 16.471C58.7421 16.0709 58.6798 15.7175 58.5552 15.4109C58.4306 15.1044 58.2457 14.8648 58.0005 14.6922C57.7553 14.5196 57.4505 14.4334 57.0862 14.4334C56.7219 14.4334 56.4107 14.5212 56.1527 14.697C55.8946 14.8728 55.6977 15.1044 55.5619 15.3917C55.4262 15.6791 55.3583 15.9924 55.3583 16.3317V16.9857C55.3583 17.4349 55.4354 17.8151 55.5897 18.1263C55.7439 18.4375 55.9603 18.6726 56.2388 18.8316C56.5172 18.9907 56.8399 19.0702 57.2067 19.0702C57.4469 19.0702 57.6653 19.0358 57.8618 18.9668C58.0583 18.8979 58.2275 18.7942 58.3693 18.6557C58.5111 18.5173 58.6198 18.3459 58.6956 18.1415L59.9049 18.427C59.802 18.7664 59.6262 19.0644 59.3777 19.3211C59.1292 19.5778 58.8202 19.7778 58.4509 19.9213C58.0815 20.0647 57.6623 20.1364 57.1934 20.1364ZM63.8538 20.1301C63.3249 20.1301 62.8537 19.9944 62.4403 19.723C62.0269 19.4517 61.703 19.0631 61.4687 18.5574C61.2343 18.0517 61.1171 17.4459 61.1171 16.7401C61.1171 16.0304 61.2362 15.4237 61.4742 14.9199C61.7123 14.4162 62.0379 14.0314 62.4509 13.7657C62.864 13.5 63.3318 13.3672 63.8544 13.3672C64.2619 13.3672 64.5901 13.4349 64.839 13.5702C65.088 13.7056 65.2827 13.863 65.4231 14.0425C65.5634 14.222 65.6698 14.3798 65.7423 14.516H65.8159V11.2695H67.1047V20H65.8489V18.9747H65.7423C65.6684 19.1141 65.5596 19.2739 65.4156 19.4541C65.2717 19.6344 65.0749 19.7921 64.8255 19.9273C64.576 20.0625 64.2521 20.1301 63.8538 20.1301ZM64.1396 19.0317C64.505 19.0317 64.8139 18.9346 65.0662 18.7404C65.3186 18.5461 65.5099 18.2761 65.6404 17.9304C65.7708 17.5846 65.836 17.1846 65.836 16.7305C65.836 16.2749 65.7716 15.8781 65.6428 15.54C65.5139 15.2018 65.3234 14.9382 65.071 14.7492C64.8187 14.5601 64.5082 14.4656 64.1396 14.4656C63.7614 14.4656 63.4457 14.5649 63.1924 14.7636C62.9392 14.9623 62.7493 15.2323 62.6228 15.5736C62.4963 15.9149 62.433 16.3005 62.433 16.7305C62.433 17.1629 62.4971 17.553 62.6252 17.9007C62.7533 18.2484 62.9448 18.5239 63.1996 18.727C63.4545 18.9301 63.7678 19.0317 64.1396 19.0317ZM71.5913 20.1364C70.9765 20.1364 70.44 19.9956 69.9818 19.714C69.5237 19.4324 69.168 19.0379 68.9148 18.5304C68.6617 18.0229 68.5351 17.4333 68.5351 16.7614C68.5351 16.0799 68.6617 15.4846 68.9148 14.9756C69.168 14.4665 69.5237 14.0712 69.9818 13.7896C70.44 13.508 70.9765 13.3672 71.5913 13.3672C72.2094 13.3672 72.7479 13.508 73.207 13.7896C73.6661 14.0712 74.0222 14.4665 74.2753 14.9756C74.5285 15.4846 74.6551 16.0799 74.6551 16.7614C74.6551 17.4333 74.5285 18.0229 74.2753 18.5304C74.0222 19.0379 73.6661 19.4324 73.207 19.714C72.7479 19.9956 72.2094 20.1364 71.5913 20.1364ZM71.5913 19.0465C71.9898 19.0465 72.3192 18.942 72.5794 18.733C72.8396 18.524 73.0328 18.2462 73.159 17.8995C73.2851 17.5529 73.3482 17.1728 73.3482 16.7593C73.3482 16.3419 73.2851 15.9588 73.159 15.61C73.0328 15.2612 72.8396 14.9819 72.5794 14.772C72.3192 14.5621 71.9898 14.4571 71.5913 14.4571C71.1953 14.4571 70.8686 14.5621 70.6113 14.772C70.3539 14.9819 70.1622 15.2604 70.036 15.6076C69.9098 15.9548 69.8468 16.3387 69.8468 16.7593C69.8468 17.1728 69.9098 17.5529 70.036 17.8995C70.1622 18.2462 70.3539 18.524 70.6113 18.733C70.8686 18.942 71.1953 19.0465 71.5913 19.0465ZM78.4368 20.1364C77.9616 20.1364 77.5397 20.0676 77.1711 19.9301C76.8025 19.7926 76.4998 19.5901 76.2631 19.3228C76.0263 19.0555 75.8692 18.7295 75.7918 18.3446L77.0057 18.0907C77.0967 18.4318 77.2645 18.6837 77.5091 18.8464C77.7538 19.009 78.0661 19.0904 78.4462 19.0904C78.8625 19.0904 79.1935 19.004 79.4393 18.8312C79.6851 18.6584 79.8081 18.4495 79.8081 18.2046C79.8081 17.9963 79.7323 17.8238 79.5808 17.6871C79.4292 17.5504 79.1973 17.4475 78.8851 17.3782L77.7826 17.1288C77.1762 16.9917 76.7246 16.7732 76.4278 16.4734C76.131 16.1735 75.9826 15.7882 75.9826 15.3174C75.9826 14.9277 76.091 14.5866 76.308 14.2942C76.5249 14.0018 76.8237 13.7742 77.2044 13.6114C77.5851 13.4486 78.0223 13.3672 78.5159 13.3672C78.9884 13.3672 79.3925 13.436 79.7284 13.5736C80.0643 13.7111 80.3369 13.9021 80.5461 14.1465C80.7553 14.391 80.9059 14.6755 80.998 15.0003L79.8414 15.2559C79.7586 15.025 79.6161 14.8222 79.4138 14.6473C79.2115 14.4724 78.9166 14.385 78.5292 14.385C78.1723 14.385 77.8747 14.4651 77.6364 14.6255C77.3981 14.7858 77.2789 14.9904 77.2789 15.2393C77.2789 15.4554 77.3585 15.6313 77.5178 15.7669C77.677 15.9025 77.9358 16.011 78.294 16.0924L79.3464 16.3268C79.9535 16.4632 80.4037 16.6783 80.697 16.9722C80.9902 17.266 81.1368 17.6407 81.1368 18.0963C81.1368 18.4946 81.0228 18.847 80.7948 19.1536C80.5667 19.4601 80.2497 19.7006 79.8438 19.8749C79.4379 20.0492 78.9689 20.1364 78.4368 20.1364Z" fill="#3F4946"/>
</svg>
