<svg width="61" height="10" viewBox="0 0 61 10" fill="none" xmlns="http://www.w3.org/2000/svg">
<path d="M2.26852 8.768V2.7288H3.76164V8.768H2.26852ZM1.1874e-05 6.45466V5.03943H6.03015V6.45466H1.1874e-05ZM14.5797 9.36598C13.8031 9.36598 13.1078 9.18934 12.4938 8.83606C11.8799 8.48278 11.3958 7.97087 11.0413 7.30032C10.6869 6.62977 10.5097 5.82002 10.5097 4.87107C10.5097 3.91608 10.6885 3.10278 11.0461 2.43117C11.4037 1.75956 11.89 1.2472 12.505 0.894081C13.1199 0.540962 13.8115 0.364402 14.5797 0.364402C15.078 0.364402 15.5423 0.433885 15.9725 0.572851C16.4027 0.711817 16.7842 0.914834 17.117 1.1819C17.4499 1.44897 17.7228 1.77534 17.9358 2.16102C18.1488 2.5467 18.2882 2.98625 18.3539 3.47967H16.5371C16.4955 3.23908 16.4194 3.02517 16.3086 2.83792C16.1978 2.65068 16.0585 2.49132 15.8906 2.35984C15.7227 2.22837 15.5312 2.12871 15.316 2.06086C15.1009 1.993 14.8682 1.95907 14.6179 1.95907C14.1622 1.95907 13.7623 2.07284 13.4181 2.30036C13.0739 2.52789 12.8069 2.85824 12.617 3.29141C12.4271 3.72457 12.3321 4.25113 12.3321 4.87107C12.3321 5.50192 12.4286 6.0334 12.6215 6.46551C12.8144 6.89761 13.0819 7.22327 13.424 7.44249C13.766 7.6617 14.1619 7.7713 14.6115 7.7713C14.8618 7.7713 15.094 7.73693 15.3081 7.66817C15.5222 7.59941 15.7142 7.49975 15.8842 7.36918C16.0543 7.23861 16.1957 7.07925 16.3086 6.8911C16.4215 6.70296 16.4998 6.48949 16.5435 6.25071H18.3603C18.3112 6.6576 18.1902 7.04708 17.9973 7.41914C17.8044 7.79121 17.5463 8.12394 17.223 8.41733C16.8997 8.71071 16.5166 8.94217 16.0737 9.11169C15.6308 9.28121 15.1328 9.36598 14.5797 9.36598ZM21.4605 9.37586C21.0426 9.37586 20.6682 9.30218 20.3374 9.15482C20.0066 9.00746 19.7465 8.78807 19.5571 8.49665C19.3676 8.20523 19.2729 7.84273 19.2729 7.40916C19.2729 7.0411 19.34 6.73411 19.4742 6.48818C19.6085 6.24225 19.7921 6.04422 20.0253 5.89407C20.2585 5.74393 20.5235 5.62969 20.8202 5.55136C21.1169 5.47304 21.4277 5.4185 21.7527 5.38775C22.1323 5.34947 22.4387 5.31342 22.672 5.27961C22.9054 5.2458 23.0765 5.19291 23.1856 5.12093C23.2946 5.04896 23.3491 4.9421 23.3491 4.80035V4.7714C23.3491 4.58369 23.3093 4.42491 23.2295 4.29504C23.1498 4.16518 23.0334 4.06568 22.8802 3.99653C22.7271 3.92738 22.5389 3.89281 22.3156 3.89281C22.0908 3.89281 21.8941 3.92701 21.7256 3.99541C21.5571 4.06382 21.4191 4.15514 21.3117 4.2694C21.2042 4.38365 21.1268 4.51196 21.0795 4.65434L19.4612 4.38571C19.5726 4.00259 19.7599 3.67761 20.0229 3.41077C20.2859 3.14394 20.6128 2.94015 21.0035 2.79942C21.3942 2.65869 21.8334 2.58832 22.3211 2.58832C22.6742 2.58832 23.0174 2.63015 23.3508 2.71382C23.6842 2.79748 23.9835 2.92835 24.2485 3.10642C24.5136 3.28449 24.724 3.51477 24.8798 3.79725C25.0356 4.07972 25.1135 4.42068 25.1135 4.82012V9.24831H23.4399V8.33497H23.382C23.2757 8.53877 23.1343 8.71889 22.958 8.8753C22.7816 9.03172 22.5694 9.15425 22.3214 9.2429C22.0735 9.33154 21.7865 9.37586 21.4605 9.37586ZM21.9574 8.13856C22.2352 8.13856 22.4793 8.08326 22.6896 7.97265C22.8998 7.86205 23.0644 7.71277 23.1834 7.52482C23.3024 7.33687 23.3618 7.12754 23.3618 6.89684V6.18508C23.3081 6.22124 23.2288 6.25515 23.1239 6.2868C23.019 6.31846 22.902 6.34679 22.7729 6.37182C22.6438 6.39684 22.5163 6.41855 22.3905 6.43694C22.2647 6.45534 22.1529 6.47148 22.0552 6.48536C21.8384 6.51462 21.6477 6.56432 21.4833 6.63445C21.3189 6.70458 21.1912 6.79836 21.1002 6.91579C21.0092 7.03322 20.9637 7.18038 20.9637 7.35727C20.9637 7.52757 21.0067 7.67067 21.0926 7.78657C21.1785 7.90247 21.2958 7.99011 21.4447 8.04949C21.5936 8.10887 21.7645 8.13856 21.9574 8.13856ZM26.6175 9.24831V2.67069H28.3275V3.81607H28.3981C28.5175 3.41066 28.7194 3.10378 29.0037 2.89543C29.288 2.68708 29.6146 2.58291 29.9835 2.58291C30.0747 2.58291 30.1726 2.58805 30.2773 2.59832C30.382 2.6086 30.4742 2.62311 30.5539 2.64186V4.21829C30.4759 4.19138 30.362 4.16956 30.2121 4.15281C30.0622 4.13606 29.922 4.12769 29.7914 4.12769C29.5221 4.12769 29.2804 4.18597 29.0662 4.30254C28.8521 4.41911 28.6845 4.58047 28.5635 4.78662C28.4424 4.99277 28.3818 5.23218 28.3818 5.50486V9.24831H26.6175ZM31.6125 9.24831V2.67069H33.3225V3.81607H33.3931C33.5125 3.41066 33.7144 3.10378 33.9987 2.89543C34.283 2.68708 34.6096 2.58291 34.9785 2.58291C35.0697 2.58291 35.1676 2.58805 35.2723 2.59832C35.377 2.6086 35.4691 2.62311 35.5488 2.64186V4.21829C35.4709 4.19138 35.3569 4.16956 35.2071 4.15281C35.0572 4.13606 34.917 4.12769 34.7864 4.12769C34.5171 4.12769 34.2753 4.18597 34.0612 4.30254C33.8471 4.41911 33.6795 4.58047 33.5584 4.78662C33.4374 4.99277 33.3768 5.23218 33.3768 5.50486V9.24831H31.6125ZM36.5722 9.24831V2.67069H38.3365V9.24831H36.5722ZM37.4539 1.81326C37.1882 1.81326 36.9605 1.72444 36.7709 1.5468C36.5813 1.36917 36.4865 1.156 36.4865 0.907311C36.4865 0.653544 36.5813 0.438879 36.7709 0.263316C36.9605 0.0877528 37.1882 -2.87274e-05 37.4539 -2.87274e-05C37.7208 -2.87274e-05 37.9492 0.0876393 38.1391 0.262975C38.329 0.438311 38.4239 0.653034 38.4239 0.907145C38.4239 1.15617 38.329 1.36945 38.1391 1.54697C37.9492 1.7245 37.7208 1.81326 37.4539 1.81326ZM41.6018 5.43989V9.24831H39.8374V2.67069H41.5034L41.5315 4.31274H41.4258C41.5983 3.7641 41.8603 3.33954 42.2119 3.03905C42.5635 2.73856 43.0169 2.58832 43.5723 2.58832C44.0282 2.58832 44.4255 2.68746 44.7642 2.88573C45.1029 3.084 45.3659 3.36809 45.5533 3.738C45.7406 4.1079 45.8343 4.55016 45.8343 5.06475V9.24831H44.0699V5.37223C44.0699 4.9637 43.9646 4.64328 43.7538 4.41096C43.5431 4.17865 43.2517 4.0625 42.8796 4.0625C42.6315 4.0625 42.4111 4.11684 42.2183 4.22552C42.0255 4.33421 41.8746 4.49082 41.7655 4.69536C41.6564 4.8999 41.6018 5.14808 41.6018 5.43989ZM49.1031 5.43989V9.24831H47.3388V0.48207H49.0713V4.31274H48.9271C49.0996 3.7641 49.3616 3.33954 49.7132 3.03905C50.0648 2.73856 50.5183 2.58832 51.0736 2.58832C51.5295 2.58832 51.9273 2.68746 52.2668 2.88573C52.6064 3.084 52.8699 3.36809 53.0573 3.738C53.2446 4.1079 53.3383 4.55016 53.3383 5.06475V9.24831H51.5713V5.37223C51.5713 4.9637 51.4659 4.64328 51.2551 4.41096C51.0444 4.17865 50.753 4.0625 50.381 4.0625C50.1328 4.0625 49.9124 4.11684 49.7196 4.22552C49.5268 4.33421 49.3759 4.49082 49.2668 4.69536C49.1577 4.8999 49.1031 5.14808 49.1031 5.43989ZM57.7839 9.3768C57.1242 9.3768 56.5533 9.23507 56.0714 8.95161C55.5895 8.66815 55.2182 8.272 54.9577 7.76316C54.6971 7.25433 54.5668 6.6626 54.5668 5.98797C54.5668 5.30793 54.6971 4.71304 54.9577 4.20331C55.2182 3.69357 55.5895 3.29697 56.0714 3.01351C56.5533 2.73005 57.1242 2.58832 57.7839 2.58832C58.4454 2.58832 59.0165 2.73005 59.4973 3.01351C59.978 3.29697 60.3486 3.69357 60.6092 4.20331C60.8697 4.71304 61 5.30793 61 5.98797C61 6.6626 60.8697 7.25433 60.6092 7.76316C60.3486 8.272 59.978 8.66815 59.4973 8.95161C59.0165 9.23507 58.4454 9.3768 57.7839 9.3768ZM57.7839 7.98794C58.0979 7.98794 58.3605 7.90067 58.5716 7.72613C58.7827 7.5516 58.941 7.31289 59.0465 7.01002C59.1521 6.70715 59.2048 6.36435 59.2048 5.98162C59.2048 5.59497 59.1521 5.25089 59.0465 4.94939C58.941 4.64789 58.7827 4.41048 58.5716 4.23716C58.3605 4.06384 58.0979 3.97718 57.7839 3.97718C57.4696 3.97718 57.2072 4.06384 56.9968 4.23716C56.7864 4.41048 56.6285 4.64744 56.523 4.94804C56.4175 5.24863 56.3647 5.59316 56.3647 5.98162C56.3647 6.36435 56.4175 6.70715 56.523 7.01002C56.6285 7.31289 56.7864 7.5516 56.9968 7.72613C57.2072 7.90067 57.4696 7.98794 57.7839 7.98794Z" fill="white"/>
</svg>
