<svg width="16" height="16" viewBox="0 0 16 16" fill="none" xmlns="http://www.w3.org/2000/svg">
<path d="M7.61905 6.09524V3.80952H5.33333V2.28571H7.61905V0H9.14286V2.28571H11.4286V3.80952H9.14286V6.09524H7.61905ZM4.57143 16C4.15238 16 3.79365 15.8508 3.49524 15.5524C3.19683 15.254 3.04762 14.8952 3.04762 14.4762C3.04762 14.0571 3.19683 13.6984 3.49524 13.4C3.79365 13.1016 4.15238 12.9524 4.57143 12.9524C4.99048 12.9524 5.34921 13.1016 5.64762 13.4C5.94603 13.6984 6.09524 14.0571 6.09524 14.4762C6.09524 14.8952 5.94603 15.254 5.64762 15.5524C5.34921 15.8508 4.99048 16 4.57143 16ZM12.1905 16C11.7714 16 11.4127 15.8508 11.1143 15.5524C10.8159 15.254 10.6667 14.8952 10.6667 14.4762C10.6667 14.0571 10.8159 13.6984 11.1143 13.4C11.4127 13.1016 11.7714 12.9524 12.1905 12.9524C12.6095 12.9524 12.9683 13.1016 13.2667 13.4C13.5651 13.6984 13.7143 14.0571 13.7143 14.4762C13.7143 14.8952 13.5651 15.254 13.2667 15.5524C12.9683 15.8508 12.6095 16 12.1905 16ZM0 2.28571V0.761905H2.49524L5.73333 7.61905H11.0667L14.0381 2.28571H15.7714L12.419 8.34286C12.2794 8.59683 12.0921 8.79365 11.8571 8.93333C11.6222 9.07302 11.3651 9.14286 11.0857 9.14286H5.40952L4.57143 10.6667H13.7143V12.1905H4.57143C4 12.1905 3.56508 11.9429 3.26667 11.4476C2.96825 10.9524 2.95873 10.4508 3.2381 9.94286L4.26667 8.07619L1.52381 2.28571H0Z" fill="white"/>
</svg>
