<svg width="208" height="40" viewBox="0 0 208 40" fill="none" xmlns="http://www.w3.org/2000/svg">
<rect width="208" height="40" rx="4" fill="#FF6600"/>
<path d="M68.5875 18.125V15.875H66.3375V14.375H68.5875V12.125H70.0875V14.375H72.3375V15.875H70.0875V18.125H68.5875ZM65.5875 27.875C65.175 27.875 64.8219 27.7281 64.5281 27.4344C64.2344 27.1406 64.0875 26.7875 64.0875 26.375C64.0875 25.9625 64.2344 25.6094 64.5281 25.3156C64.8219 25.0219 65.175 24.875 65.5875 24.875C66 24.875 66.3531 25.0219 66.6469 25.3156C66.9406 25.6094 67.0875 25.9625 67.0875 26.375C67.0875 26.7875 66.9406 27.1406 66.6469 27.4344C66.3531 27.7281 66 27.875 65.5875 27.875ZM73.0875 27.875C72.675 27.875 72.3219 27.7281 72.0281 27.4344C71.7344 27.1406 71.5875 26.7875 71.5875 26.375C71.5875 25.9625 71.7344 25.6094 72.0281 25.3156C72.3219 25.0219 72.675 24.875 73.0875 24.875C73.5 24.875 73.8531 25.0219 74.1469 25.3156C74.4406 25.6094 74.5875 25.9625 74.5875 26.375C74.5875 26.7875 74.4406 27.1406 74.1469 27.4344C73.8531 27.7281 73.5 27.875 73.0875 27.875ZM61.0875 14.375V12.875H63.5437L66.7312 19.625H71.9812L74.9062 14.375H76.6125L73.3125 20.3375C73.175 20.5875 72.9906 20.7812 72.7594 20.9187C72.5281 21.0562 72.275 21.125 72 21.125H66.4125L65.5875 22.625H74.5875V24.125H65.5875C65.025 24.125 64.5969 23.8813 64.3031 23.3938C64.0094 22.9062 64 22.4125 64.275 21.9125L65.2875 20.075L62.5875 14.375H61.0875Z" fill="white"/>
<path d="M87.9431 23.5216V17.5071H89.4301V23.5216H87.9431ZM85.6838 21.2177V19.8083H91.6894V21.2177H85.6838ZM100.204 24.1172C99.4306 24.1172 98.7381 23.9413 98.1267 23.5894C97.5153 23.2376 97.0331 22.7278 96.6801 22.06C96.3272 21.3922 96.1507 20.5857 96.1507 19.6406C96.1507 18.6895 96.3287 17.8795 96.6849 17.2107C97.041 16.5418 97.5253 16.0315 98.1378 15.6799C98.7502 15.3282 99.439 15.1523 100.204 15.1523C100.7 15.1523 101.163 15.2215 101.591 15.3599C102.02 15.4983 102.4 15.7005 102.731 15.9665C103.063 16.2325 103.334 16.5575 103.546 16.9416C103.759 17.3257 103.897 17.7635 103.963 18.2549H102.153C102.112 18.0153 102.036 17.8023 101.926 17.6158C101.816 17.4293 101.677 17.2706 101.51 17.1396C101.342 17.0087 101.152 16.9095 100.937 16.8419C100.723 16.7743 100.491 16.7405 100.242 16.7405C99.7882 16.7405 99.3899 16.8538 99.0472 17.0804C98.7044 17.307 98.4385 17.636 98.2493 18.0674C98.0602 18.4988 97.9656 19.0232 97.9656 19.6406C97.9656 20.2689 98.0617 20.7982 98.2538 21.2286C98.446 21.6589 98.7124 21.9832 99.053 22.2015C99.3937 22.4199 99.7879 22.529 100.236 22.529C100.485 22.529 100.716 22.4948 100.929 22.4263C101.143 22.3578 101.334 22.2586 101.503 22.1285C101.673 21.9985 101.813 21.8398 101.926 21.6524C102.038 21.465 102.116 21.2524 102.16 21.0146H103.969C103.92 21.4199 103.8 21.8078 103.608 22.1783C103.416 22.5488 103.159 22.8802 102.837 23.1724C102.515 23.4646 102.133 23.6951 101.692 23.8639C101.251 24.0328 100.755 24.1172 100.204 24.1172ZM107.057 24.127C106.641 24.127 106.268 24.0537 105.938 23.9069C105.609 23.7601 105.35 23.5416 105.161 23.2514C104.972 22.9612 104.878 22.6002 104.878 22.1684C104.878 21.8018 104.945 21.4961 105.079 21.2511C105.212 21.0062 105.395 20.809 105.627 20.6595C105.86 20.5099 106.124 20.3961 106.419 20.3181C106.715 20.2401 107.024 20.1858 107.348 20.1552C107.726 20.1171 108.031 20.0812 108.263 20.0475C108.496 20.0138 108.666 19.9611 108.775 19.8895C108.883 19.8178 108.938 19.7114 108.938 19.5702V19.5414C108.938 19.3544 108.898 19.1963 108.819 19.0669C108.739 18.9376 108.623 18.8385 108.471 18.7697C108.318 18.7008 108.131 18.6664 107.908 18.6664C107.684 18.6664 107.489 18.7004 107.321 18.7685C107.153 18.8367 107.016 18.9276 106.909 19.0414C106.802 19.1552 106.724 19.283 106.677 19.4248L105.066 19.1572C105.177 18.7757 105.363 18.452 105.625 18.1863C105.887 17.9205 106.213 17.7176 106.602 17.5774C106.991 17.4373 107.428 17.3672 107.914 17.3672C108.266 17.3672 108.607 17.4088 108.939 17.4922C109.271 17.5755 109.569 17.7058 109.833 17.8832C110.097 18.0605 110.307 18.2899 110.462 18.5712C110.617 18.8525 110.695 19.1921 110.695 19.5899V24H109.028V23.0904H108.97C108.865 23.2934 108.724 23.4727 108.548 23.6285C108.372 23.7843 108.161 23.9063 107.914 23.9946C107.667 24.0829 107.381 24.127 107.057 24.127ZM107.552 22.8948C107.828 22.8948 108.071 22.8397 108.281 22.7296C108.49 22.6194 108.654 22.4707 108.773 22.2835C108.891 22.0964 108.95 21.8879 108.95 21.6581V20.9493C108.897 20.9853 108.818 21.0191 108.713 21.0506C108.609 21.0821 108.492 21.1103 108.364 21.1352C108.235 21.1602 108.108 21.1818 107.983 21.2001C107.858 21.2184 107.746 21.2345 107.649 21.2483C107.433 21.2775 107.243 21.327 107.08 21.3968C106.916 21.4667 106.789 21.56 106.698 21.677C106.607 21.7939 106.562 21.9405 106.562 22.1167C106.562 22.2863 106.605 22.4288 106.69 22.5442C106.776 22.6596 106.893 22.7469 107.041 22.8061C107.189 22.8652 107.36 22.8948 107.552 22.8948ZM112.193 24V17.4492H113.896V18.5899H113.966C114.085 18.1862 114.286 17.8805 114.569 17.673C114.852 17.4655 115.178 17.3618 115.545 17.3618C115.636 17.3618 115.733 17.3669 115.838 17.3771C115.942 17.3874 116.034 17.4018 116.113 17.4205V18.9905C116.035 18.9637 115.922 18.942 115.773 18.9253C115.623 18.9086 115.484 18.9003 115.354 18.9003C115.085 18.9003 114.845 18.9583 114.631 19.0744C114.418 19.1905 114.251 19.3512 114.131 19.5565C114.01 19.7618 113.95 20.0003 113.95 20.2718V24H112.193ZM117.167 24V17.4492H118.87V18.5899H118.941C119.06 18.1862 119.261 17.8805 119.544 17.673C119.827 17.4655 120.152 17.3618 120.52 17.3618C120.61 17.3618 120.708 17.3669 120.812 17.3771C120.916 17.3874 121.008 17.4018 121.088 17.4205V18.9905C121.01 18.9637 120.897 18.942 120.747 18.9253C120.598 18.9086 120.458 18.9003 120.328 18.9003C120.06 18.9003 119.819 18.9583 119.606 19.0744C119.393 19.1905 119.226 19.3512 119.105 19.5565C118.985 19.7618 118.924 20.0003 118.924 20.2718V24H117.167ZM122.107 24V17.4492H123.864V24H122.107ZM122.985 16.5953C122.72 16.5953 122.494 16.5068 122.305 16.3299C122.116 16.153 122.021 15.9407 122.021 15.693C122.021 15.4403 122.116 15.2265 122.305 15.0517C122.494 14.8768 122.72 14.7894 122.985 14.7894C123.251 14.7894 123.478 14.8767 123.667 15.0513C123.856 15.226 123.951 15.4398 123.951 15.6929C123.951 15.9409 123.856 16.1533 123.667 16.3301C123.478 16.5069 123.251 16.5953 122.985 16.5953ZM127.116 20.2071V24H125.359V17.4492H127.018L127.046 19.0846H126.941C127.112 18.5382 127.373 18.1153 127.723 17.8161C128.074 17.5168 128.525 17.3672 129.078 17.3672C129.532 17.3672 129.928 17.4659 130.265 17.6634C130.603 17.8608 130.865 18.1438 131.051 18.5122C131.238 18.8806 131.331 19.321 131.331 19.8335V24H129.574V20.1397C129.574 19.7329 129.469 19.4138 129.259 19.1824C129.049 18.951 128.759 18.8354 128.389 18.8354C128.141 18.8354 127.922 18.8895 127.73 18.9977C127.538 19.106 127.388 19.2619 127.279 19.4656C127.17 19.6693 127.116 19.9165 127.116 20.2071ZM134.587 20.2071V24H132.829V15.2695H134.555V19.0846H134.411C134.583 18.5382 134.844 18.1153 135.194 17.8161C135.544 17.5168 135.996 17.3672 136.549 17.3672C137.003 17.3672 137.399 17.4659 137.737 17.6634C138.076 17.8608 138.338 18.1438 138.525 18.5122C138.711 18.8806 138.805 19.321 138.805 19.8335V24H137.045V20.1397C137.045 19.7329 136.94 19.4138 136.73 19.1824C136.52 18.951 136.23 18.8354 135.859 18.8354C135.612 18.8354 135.393 18.8895 135.201 18.9977C135.009 19.106 134.858 19.2619 134.75 19.4656C134.641 19.6693 134.587 19.9165 134.587 20.2071ZM143.232 24.128C142.575 24.128 142.006 23.9868 141.526 23.7045C141.046 23.4222 140.677 23.0277 140.417 22.5209C140.158 22.0142 140.028 21.4248 140.028 20.753C140.028 20.0757 140.158 19.4832 140.417 18.9756C140.677 18.4679 141.046 18.0729 141.526 17.7906C142.006 17.5083 142.575 17.3672 143.232 17.3672C143.891 17.3672 144.46 17.5083 144.938 17.7906C145.417 18.0729 145.786 18.4679 146.046 18.9756C146.305 19.4832 146.435 20.0757 146.435 20.753C146.435 21.4248 146.305 22.0142 146.046 22.5209C145.786 23.0277 145.417 23.4222 144.938 23.7045C144.46 23.9868 143.891 24.128 143.232 24.128ZM143.232 22.7448C143.545 22.7448 143.806 22.6579 144.016 22.484C144.227 22.3102 144.384 22.0725 144.489 21.7708C144.595 21.4692 144.647 21.1278 144.647 20.7466C144.647 20.3616 144.595 20.0189 144.489 19.7186C144.384 19.4184 144.227 19.1819 144.016 19.0093C143.806 18.8367 143.545 18.7504 143.232 18.7504C142.919 18.7504 142.658 18.8367 142.448 19.0093C142.239 19.1819 142.081 19.4179 141.976 19.7173C141.871 20.0166 141.819 20.3598 141.819 20.7466C141.819 21.1278 141.871 21.4692 141.976 21.7708C142.081 22.0725 142.239 22.3102 142.448 22.484C142.658 22.6579 142.919 22.7448 143.232 22.7448Z" fill="white"/>
</svg>
